<svg width="22" height="23" viewBox="0 0 22 23" fill="none" xmlns="http://www.w3.org/2000/svg">
<path d="M11.4604 22.25C11.2904 22.25 11.1204 22.25 10.9504 22.24C5.35044 21.99 0.670437 17.48 0.280437 11.98C-0.0595635 7.25999 2.67044 2.84999 7.07044 0.999992C8.32044 0.479992 8.98044 0.879992 9.26044 1.16999C9.54044 1.44999 9.93044 2.09999 9.41044 3.28999C8.95044 4.34999 8.72044 5.47999 8.73044 6.63999C8.75044 11.07 12.4304 14.83 16.9204 15.01C17.5704 15.04 18.2104 14.99 18.8304 14.88C20.1504 14.64 20.7004 15.17 20.9104 15.51C21.1204 15.85 21.3604 16.58 20.5604 17.66C18.4404 20.56 15.0704 22.25 11.4604 22.25ZM1.77044 11.87C2.11044 16.63 6.17044 20.53 11.0104 20.74C14.3004 20.9 17.4204 19.4 19.3404 16.78C19.4904 16.57 19.5604 16.42 19.5904 16.34C19.5004 16.33 19.3404 16.32 19.0904 16.37C18.3604 16.5 17.6004 16.55 16.8504 16.52C11.5704 16.31 7.25044 11.88 7.22044 6.65999C7.22044 5.27999 7.49044 3.94999 8.04044 2.69999C8.14044 2.47999 8.16044 2.32999 8.17044 2.24999C8.08044 2.24999 7.92044 2.26999 7.66044 2.37999C3.85044 3.97999 1.49044 7.79999 1.77044 11.87Z" fill="#404040"/>
</svg>
